<svg transform="scale(1)" version="1.1" id="_x30_586_x5F_Same_Day_Delivery" xmlns="http://www.w3.org/2000/svg" xmlns:xlink="http://www.w3.org/1999/xlink" x="0px" y="0px" viewBox="0 0 500 500" xml:space="preserve" class="show_show__wrapper__graphic__5Waiy "><title>React</title><style type="text/css">
	.st0{fill:#f4f4f5;}
	.st1{fill:#71717a;}
	.st2{fill:#52525b;}
</style><g id="letter"><rect class="st0" x="155.9" y="173.1" width="188.3" height="143.8"></rect><path class="st1" d="M344.1,317.4H155.9c-0.3,0-0.5-0.2-0.5-0.5V173.1c0-0.3,0.2-0.5,0.5-0.5h188.3c0.3,0,0.5,0.2,0.5,0.5v143.8
		C344.7,317.2,344.4,317.4,344.1,317.4L344.1,317.4z M156.3,316.4h187.3V173.6H156.4L156.3,316.4z"></path><path class="st1" d="M321.3,222.9h-31.1c-0.3,0-0.5-0.2-0.5-0.5v-22.8c0-0.3,0.2-0.5,0.5-0.5h31.1c0.3,0,0.5,0.2,0.5,0.5v22.8
		C321.8,222.7,321.6,222.9,321.3,222.9z M290.8,221.9h30.1v-21.8h-30.1V221.9z"></path><path class="st1" d="M230.8,200.1h-46.2c-0.3,0-0.5-0.2-0.5-0.5s0.2-0.5,0.5-0.5h46.2c0.3,0,0.5,0.2,0.5,0.5
		S231.1,200.1,230.8,200.1z"></path><path class="st1" d="M271,212.8h-86.4c-0.3,0-0.5-0.2-0.5-0.5s0.2-0.5,0.5-0.5H271c0.3,0,0.5,0.2,0.5,0.5
		C271.5,212.6,271.3,212.8,271,212.8z"></path><path class="st1" d="M271,225.4h-86.4c-0.3,0-0.5-0.2-0.5-0.5s0.2-0.5,0.5-0.5H271c0.3,0,0.5,0.2,0.5,0.5
		C271.5,225.2,271.3,225.4,271,225.4z"></path><path class="st1" d="M271,238.1h-86.4c-0.3,0-0.5-0.2-0.5-0.5s0.2-0.5,0.5-0.5H271c0.3,0,0.5,0.2,0.5,0.5S271.3,238.1,271,238.1z"></path></g><g id="hand-2"><path class="st2" d="M93.7,228.5v0.6c0.1,9.7-1.3,19.4-4.1,28.8C85,272.7,77,282.5,67.8,282.5c-8.3,0-15.7-8.1-20.5-20.7
		c-3.4-9-5.4-20.4-5.4-32.8c0-1.4,0-2.8,0.1-4.1c0.1-2,0.2-3.9,0.4-5.8c0.3-3.9,0.9-7.7,1.7-11.5c4-18.9,13.1-32.1,23.7-32.1
		c11.5,0,21.2,15.4,24.6,36.6c0.6,3.8,1,7.7,1.2,11.6C93.6,225.4,93.7,226.9,93.7,228.5z"></path><path class="st1" d="M67.8,283c-8.3,0-15.9-7.7-20.9-21c-3.6-9.5-5.5-20.9-5.5-32.9c0-1.5,0-2.8,0.1-4.1c0.1-1.9,0.2-3.9,0.4-5.8
		c0.3-3.9,0.9-7.7,1.7-11.6c4.2-19.7,13.7-32.5,24.2-32.5c11.4,0,21.5,14.9,25.1,37.1c0.6,3.8,1,7.7,1.2,11.6
		c0.1,1.6,0.1,3.1,0.1,4.7l0,0v0.6c0.1,9.8-1.3,19.6-4.1,29C85.2,273.7,76.9,283,67.8,283z M67.8,176.1c-10,0-19.2,12.4-23.2,31.7
		c-0.8,3.8-1.4,7.6-1.7,11.4c-0.2,2-0.3,3.9-0.4,5.8c0,1.3-0.1,2.6-0.1,4.1c0,11.9,1.9,23.2,5.4,32.6c4.9,13,12.2,20.4,20,20.4
		c8.7,0,16.6-9.1,21.4-24.3c2.7-9.3,4.1-18.9,4-28.6v-0.6c0-1.6-0.1-3.1-0.1-4.7c-0.2-3.9-0.6-7.7-1.2-11.5
		C88.4,190.6,78.7,176.1,67.8,176.1L67.8,176.1z"></path><path class="st0" d="M155.9,206.7v20.9l-62.2,0.9l-38.8,0.6L42,225c0.1-2,0.2-3.9,0.4-5.8c0.3-3.9,0.9-7.7,1.7-11.5
		c16,2.8,32.1,4.3,48.3,4.6C116.9,212.8,140.6,210.8,155.9,206.7z"></path><path class="st1" d="M54.8,229.6h-0.2l-12.9-4.1c-0.2-0.1-0.4-0.3-0.3-0.5c0.1-1.9,0.2-3.9,0.4-5.8c0.3-3.9,0.9-7.7,1.7-11.6
		c0.1-0.3,0.3-0.4,0.6-0.4c15.9,2.8,32.1,4.3,48.3,4.6c24.9,0.5,48.6-1.5,63.3-5.5c0.3-0.1,0.5,0.1,0.6,0.4c0,0,0,0.1,0,0.1v20.9
		c0,0.3-0.2,0.5-0.5,0.5L54.8,229.6L54.8,229.6z M42.5,224.6l12.4,4l100.4-1.4v-19.7c-14.9,3.9-38.3,5.9-63,5.4
		c-16.1-0.3-32.1-1.8-47.9-4.5c-0.7,3.6-1.3,7.3-1.6,11C42.7,221,42.5,222.8,42.5,224.6L42.5,224.6z"></path><path class="st0" d="M205.5,255.5c0,0,1.8,3.8-0.3,6s-5.9,1.5-5.9,1.5s-0.9,8.2-8.1,7.2c-1.2,3.2-4.3,5.3-7.6,5.2
		c-6,0.2-24.4,2-31.8-1.2s-21.4-13.8-32.1-16.5c-4.2-1.1-16.3-0.8-30.1,0.1c-14.7,0.9-31.3,2.6-42.3,4c-3.4-9-5.4-20.4-5.4-32.8
		c0-1.4,0-2.8,0.1-4.1c0.1-2,0.2-3.9,0.4-5.8c17,2.4,35.2,3.9,51.2,4.6c17.8,0.9,33,0.8,40.8,0.1c6.3-0.5,14.1-3,21.4-5.6
		c10-3.5,19-7,21.1-5.6c3.8,2.5-5.1,11.7-8.6,13.9s-7.4,4.6-7.4,4.6s16.3,5.8,19.6,7.1s29.7,11.4,29.1,14.4S205.5,255.5,205.5,255.5
		z"></path><path class="st1" d="M166.7,276.6c-5.8,0-11.6-0.4-15-1.9c-3.6-1.7-7.1-3.7-10.4-5.8c-7-4.2-14.9-9-21.6-10.7
		c-3.7-0.9-14.4-0.9-30,0.1c-13.7,0.9-30.2,2.4-42.3,4c-0.2,0-0.4-0.1-0.5-0.3c-3.6-9.5-5.5-20.9-5.5-32.9c0-1.5,0-2.8,0.1-4.1
		c0.1-1.9,0.2-3.9,0.4-5.8c0-0.1,0.1-0.3,0.2-0.3c0.1-0.1,0.2-0.1,0.4-0.1c19.5,2.7,38.6,4,51.2,4.6c16.8,0.8,32.5,0.9,40.8,0.1
		c6.3-0.5,14.3-3.1,21.3-5.5l4.3-1.5c9.7-3.4,15.3-5.3,17.3-4c0.8,0.5,1.2,1.4,1.1,2.3c0,3.9-6.8,10.6-9.8,12.5
		c-2.5,1.6-5.1,3.2-6.5,4c3.6,1.3,15.8,5.6,18.6,6.8l1.9,0.7c24.7,9.8,27.8,12.6,27.5,14.2c-0.4,1.8-2.1,3.1-3.9,3.1
		c0.4,1.3,1.1,4-0.7,5.8s-4.6,1.9-5.8,1.7c-0.4,2.3-1.5,4.4-3.2,5.9c-1.4,1.1-3.2,1.5-5,1.3c-1.4,3.2-4.5,5.2-8,5.2
		c-1.1,0-2.6,0.1-4.3,0.2C175.8,276.4,171.2,276.6,166.7,276.6z M109.7,256.6c3.4-0.1,6.8,0.1,10.2,0.7c6.8,1.7,14.8,6.5,21.8,10.8
		c3.3,2.1,6.8,4,10.3,5.8c5.9,2.5,19.3,1.8,27.2,1.4c1.8-0.1,3.2-0.2,4.3-0.2c3.2,0,6.1-1.9,7.2-4.9c0.1-0.2,0.3-0.4,0.5-0.3
		c1.6,0.3,3.3,0,4.6-1c2.5-1.9,2.9-5.7,2.9-5.7c0-0.1,0.1-0.3,0.2-0.4c0.1-0.1,0.3-0.1,0.4-0.1c0,0,3.5,0.7,5.4-1.4s0.2-5.4,0.2-5.4
		c-0.1-0.2-0.1-0.3,0-0.5c0.1-0.1,0.3-0.2,0.4-0.2c0.1,0,3.2,0.2,3.7-2.3c0.1-0.7-2.2-3.3-26.9-13.1l-1.9-0.8
		c-3.2-1.3-19.4-7-19.6-7.1c-0.2-0.1-0.3-0.2-0.3-0.4c0-0.2,0.1-0.4,0.2-0.5c0,0,3.8-2.3,7.4-4.6c3.1-2,9.3-8.4,9.3-11.7
		c0-0.6-0.2-1.1-0.7-1.4c-1.7-1.1-8.8,1.4-16.4,4.1c-1.4,0.5-2.9,1-4.3,1.5c-7.4,2.6-15.2,5.1-21.5,5.6c-8.4,0.7-24,0.7-40.9-0.1
		c-12.5-0.6-31.5-1.9-50.8-4.6c-0.2,1.8-0.3,3.5-0.3,5.2c0,1.3-0.1,2.6-0.1,4.1c-0.1,11,1.6,21.9,5.3,32.2c12-1.5,28.4-3.1,41.9-3.9
		C96.1,256.9,103.6,256.6,109.7,256.6L109.7,256.6z"></path><path class="st1" d="M205.5,256L205.5,256c-12.4-1.9-31.2-4.7-32.4-4.7l0,0c-0.2,0.1-0.5-0.1-0.6-0.3c0,0,0,0,0,0
		c-0.1-0.3,0.1-0.5,0.4-0.6c0.7-0.1,20.7,2.9,32.6,4.7c0.3,0,0.5,0.3,0.4,0.6C206,255.8,205.8,256,205.5,256z"></path><path class="st1" d="M199.4,263.5L199.4,263.5l-29.7-4c-0.3,0-0.5-0.3-0.4-0.6c0-0.3,0.3-0.5,0.5-0.4c0,0,0,0,0,0l29.6,4
		c0.3,0,0.5,0.3,0.5,0.5S199.6,263.5,199.4,263.5L199.4,263.5z"></path><path class="st1" d="M191.3,270.7L191.3,270.7l-25.3-3c-0.3,0-0.5-0.3-0.4-0.6c0-0.3,0.3-0.5,0.6-0.4l25.2,3c0.3,0,0.5,0.2,0.5,0.5
		C191.8,270.5,191.6,270.7,191.3,270.7L191.3,270.7z"></path></g><g id="hand-1"><path class="st2" d="M406.3,252.6v0.6c-0.1,9.8,1.3,19.5,4.1,28.8c4.6,14.8,12.7,24.7,21.8,24.7c8.3,0,15.7-8.1,20.5-20.7
		c3.4-9,5.4-20.4,5.4-32.8c0-1.4,0-2.8-0.1-4.1c-0.1-2-0.2-3.9-0.4-5.8c-0.3-3.9-0.9-7.7-1.7-11.5c-4-18.9-13.1-32.1-23.7-32.1
		c-11.5,0-21.2,15.4-24.6,36.6c-0.6,3.8-1,7.7-1.2,11.6C406.4,249.4,406.3,251,406.3,252.6z"></path><path class="st1" d="M432.2,307.1c-9.1,0-17.5-9.4-22.3-25c-2.8-9.4-4.2-19.1-4.1-28.9v-0.6l0,0c0-1.6,0.1-3.2,0.1-4.7
		c0.2-3.9,0.6-7.8,1.2-11.6c3.6-22.2,13.6-37.1,25.1-37.1c10.5,0,20,12.7,24.2,32.5c0.8,3.8,1.4,7.7,1.7,11.6c0.2,2,0.3,3.9,0.4,5.8
		c0,1.3,0.1,2.6,0.1,4.1c0,12-1.9,23.4-5.5,33C448.1,299.5,440.5,307.1,432.2,307.1z M406.8,252.6v0.6c-0.1,9.7,1.3,19.3,4,28.6
		c4.7,15.2,12.7,24.3,21.4,24.3c7.8,0,15.1-7.4,20-20.4c3.5-9.4,5.4-20.7,5.4-32.6c0-1.5,0-2.8-0.1-4.1c-0.1-1.9-0.2-3.8-0.4-5.8
		c-0.3-3.8-0.9-7.7-1.7-11.4c-4.1-19.2-13.2-31.7-23.2-31.7c-10.9,0-20.6,14.6-24.1,36.2c-0.6,3.8-1,7.7-1.2,11.5
		C406.9,249.5,406.8,251.1,406.8,252.6z"></path><path class="st0" d="M344.1,230.8v20.9l62.1,0.9l38.9,0.6l12.9-4.1c-0.1-2-0.2-3.9-0.4-5.8c-0.3-3.9-0.9-7.7-1.7-11.5
		c-16,2.8-32.1,4.3-48.3,4.6C383.1,236.9,359.4,234.9,344.1,230.8z"></path><path class="st1" d="M445.1,253.7L445.1,253.7l-101-1.4c-0.3,0-0.5-0.2-0.5-0.5v-20.9c0-0.3,0.2-0.5,0.5-0.5c0,0,0.1,0,0.1,0
		c14.8,4,38.4,6,63.3,5.5c16.2-0.3,32.3-1.8,48.3-4.6c0.3,0,0.5,0.1,0.6,0.4c0.8,3.8,1.4,7.7,1.7,11.6c0.2,2,0.3,3.9,0.4,5.8
		c0,0.2-0.1,0.4-0.4,0.5l-12.9,4.1L445.1,253.7z M344.6,251.2l100.4,1.4l12.4-4c-0.1-1.8-0.2-3.6-0.4-5.4c-0.3-3.7-0.9-7.4-1.6-11
		c-15.8,2.7-31.9,4.2-47.9,4.5c-24.6,0.5-48.1-1.5-63-5.4L344.6,251.2z"></path><path class="st0" d="M294.5,279.6c0,0-1.8,3.8,0.3,6s5.9,1.5,5.9,1.5s0.9,8.2,8.1,7.2c1.2,3.2,4.3,5.3,7.6,5.2
		c6,0.2,24.4,2,31.8-1.2s21.4-13.8,32.1-16.5c4.2-1.1,16.4-0.8,30.1,0.1c14.7,0.9,31.3,2.6,42.3,4c3.4-9,5.4-20.4,5.4-32.8
		c0-1.4,0-2.8-0.1-4.1c-0.1-2-0.2-3.9-0.4-5.8c-17,2.4-35.2,3.9-51.2,4.6c-17.8,0.9-33,0.8-40.9,0.1c-6.3-0.5-14.1-3-21.4-5.6
		c-10-3.5-19-7-21.1-5.6c-3.8,2.5,5.1,11.7,8.6,13.9s7.4,4.5,7.4,4.5s-16.3,5.8-19.6,7.1s-29.7,11.4-29.1,14.4
		S294.5,279.6,294.5,279.6z"></path><path class="st1" d="M333.3,300.7c-4.5,0-9.1-0.2-12.7-0.5c-1.7-0.1-3.2-0.2-4.3-0.2c-3.4,0-6.6-2-8-5.2c-1.8,0.3-3.6-0.2-5-1.3
		c-1.7-1.5-2.9-3.6-3.2-5.9c-1.2,0.1-4,0.2-5.8-1.7s-1.1-4.6-0.7-5.8c-1.9,0-3.5-1.3-4-3.1c-0.3-1.6,2.8-4.4,27.5-14.2l1.9-0.8
		c2.8-1.1,15-5.5,18.6-6.8c-1.4-0.8-4-2.4-6.5-4c-3-1.9-9.7-8.6-9.8-12.5c0-0.9,0.4-1.8,1.1-2.3c2-1.3,7.6,0.6,17.2,4
		c1.4,0.5,2.9,1,4.4,1.5c7,2.4,15,5,21.3,5.5c8.3,0.7,24,0.6,40.8-0.1c12.6-0.6,31.7-1.9,51.2-4.6c0.1,0,0.3,0,0.4,0.1
		c0.1,0.1,0.2,0.2,0.2,0.4c0.2,2,0.3,3.9,0.4,5.8c0,1.3,0.1,2.6,0.1,4.1c0,12-1.9,23.4-5.5,33c-0.1,0.2-0.3,0.3-0.5,0.3
		c-12-1.5-28.6-3.1-42.3-4c-15.6-1-26.3-1-30-0.1c-6.6,1.7-14.6,6.5-21.6,10.7c-3.4,2.1-6.9,4.1-10.5,5.8
		C344.9,300.3,339.1,300.7,333.3,300.7z M308.7,293.8c0.2,0,0.4,0.1,0.5,0.4c1.1,3,4,4.9,7.2,4.9c1.1,0,2.6,0.1,4.3,0.2
		c8,0.4,21.4,1.2,27.3-1.4c3.6-1.7,7-3.6,10.3-5.8c7-4.2,15-9,21.8-10.8c4.9-1.2,19.2-0.6,30.3,0.1c13.5,0.9,29.9,2.4,41.9,3.9
		c3.6-10.4,5.4-21.3,5.3-32.2c0-1.5,0-2.8-0.1-4.1c-0.1-1.7-0.2-3.5-0.3-5.2c-19.3,2.7-38.2,4-50.8,4.6c-16.9,0.8-32.5,0.9-40.9,0.1
		c-6.4-0.5-14.1-3-21.5-5.6c-1.5-0.5-2.9-1-4.4-1.5c-7.6-2.7-14.7-5.2-16.4-4.1c-0.5,0.3-0.7,0.8-0.7,1.4c0,3.2,6.2,9.7,9.3,11.7
		c3.5,2.2,7.3,4.5,7.4,4.6c0.2,0.1,0.3,0.3,0.2,0.5c0,0.2-0.1,0.4-0.3,0.4c-0.2,0.1-16.3,5.8-19.6,7.1l-1.9,0.8
		c-24.7,9.8-27,12.4-26.9,13.1c0.5,2.5,3.5,2.3,3.7,2.3c0.2,0,0.3,0.1,0.5,0.2c0.1,0.2,0.1,0.3,0,0.5c0,0-1.6,3.5,0.2,5.4
		s5.4,1.4,5.4,1.4c0.3-0.1,0.5,0.1,0.6,0.4c0,0,0,0,0,0c0,0,0.5,3.8,2.9,5.7c1.3,1,3,1.3,4.6,1L308.7,293.8z"></path><path class="st1" d="M294.5,280.1c-0.3,0-0.5-0.2-0.5-0.5s0.2-0.5,0.5-0.5c11.9-1.8,32-4.9,32.6-4.7c0.3,0,0.5,0.3,0.4,0.6
		s-0.3,0.5-0.6,0.4l0,0C325.7,275.4,306.9,278.2,294.5,280.1L294.5,280.1z"></path><path class="st1" d="M300.6,287.6c-0.2,0-0.5-0.2-0.5-0.4c0-0.3,0.2-0.5,0.4-0.6l29.6-4c0.3,0,0.5,0.1,0.6,0.4c0,0,0,0,0,0
		c0,0.3-0.1,0.5-0.4,0.6c0,0,0,0,0,0L300.6,287.6L300.6,287.6z"></path><path class="st1" d="M308.7,294.8c-0.3,0-0.5-0.2-0.5-0.5s0.2-0.5,0.5-0.5l25.2-3c0.3,0,0.5,0.2,0.5,0.4c0,0.3-0.2,0.5-0.4,0.6
		L308.7,294.8L308.7,294.8z"></path></g></svg>